<?xml version="1.0" encoding="UTF-8"?>
<svg version="1.1" xmlns="http://www.w3.org/2000/svg" width="512" height="512">
<path d="M0 0 C9.208412 8.03287004 11.78231468 15.82314685 13 28 C23.89 28 34.78 28 46 28 C46 23.71 46 19.42 46 15 C48.5 11.625 48.5 11.625 52 10 C56.06619246 9.67283509 59.05012052 10.40632533 62.5 12.5625 C62.995 13.036875 63.49 13.51125 64 14 C64.70125 13.34 65.4025 12.68 66.125 12 C69.54695128 9.61951215 70.91739029 9.33345148 75 10 C78.375 12 78.375 12 81 14 C81.64066406 13.34902344 82.28132813 12.69804688 82.94140625 12.02734375 C87.05562815 9.30029246 90.11756533 9.44052614 94.9375 9.5625 C95.72318359 9.55541016 96.50886719 9.54832031 97.31835938 9.54101562 C103.84395048 9.61200532 108.01766364 11.14694645 112.875 15.6875 C113.57625 16.450625 114.2775 17.21375 115 18 C115.32871094 17.2265625 115.65742188 16.453125 115.99609375 15.65625 C120.44285422 5.91917016 126.29750139 -1.33948315 136.49609375 -5.3125 C145.7432538 -7.85150182 155.11118567 -7.69973256 164 -4 C169.04709155 -0.96543621 173.70718346 2.0607752 177 7 C180.71921173 5.98566953 182.78314745 4.35726894 185.375 1.625 C190.36924316 -3.50856754 194.1828476 -6.18264783 201.5 -6.5625 C206.92387077 -6.34643921 210.29104776 -4.96255582 214 -1 C217.49665554 3.62460895 217.38556254 8.30946451 217.49609375 13.90234375 C216.42818117 20.57049079 212.25691745 25.27591248 207.5625 29.875 C207.04679443 30.38530762 206.53108887 30.89561523 205.99975586 31.42138672 C199.23951464 37.92462703 191.73889049 43.5044438 183 47 C183 108.71 183 170.42 183 234 C185.97 233.34 188.94 232.68 192 232 C199.40739215 231.22783549 205.87476338 231.42452205 212 236 C217.07523386 241.33550226 217.34987281 245.93974251 217.28125 253.05078125 C216.77540299 258.35514925 214.22984831 260.91656221 210.375 264.3125 C206.72754954 266.90410954 204.18005014 267.27138657 199.75 267.8125 C193.50295669 268.77464088 189.55108247 269.84182449 185.45703125 274.91015625 C180.47036848 281.89148413 177.72245394 289.25633662 175.50366211 297.49389648 C167.75973821 325.78810399 152.96504535 351.17608439 133.15234375 372.66015625 C131.03283386 374.96430584 128.98564658 377.31995434 126.9375 379.6875 C123.22939342 383.84551384 119.31172153 387.47804925 115 391 C113.99195313 391.83402344 112.98390625 392.66804688 111.9453125 393.52734375 C103.41968126 400.47241515 94.49739923 406.4676005 85 412 C84.34725098 412.38397949 83.69450195 412.76795898 83.02197266 413.16357422 C60.45459965 426.27243964 34.92582278 434.25077588 9 437 C7.98550781 437.11085938 6.97101563 437.22171875 5.92578125 437.3359375 C-44.9087249 442.05582891 -96.10263101 427.31930298 -136 395.3125 C-137.67793861 393.88817348 -139.34509288 392.45102256 -141 391 C-141.83660156 390.27296875 -142.67320312 389.5459375 -143.53515625 388.796875 C-153.62356996 379.87790646 -162.5811317 370.52750924 -170.66064453 359.77490234 C-171.92227635 358.10299871 -173.20718045 356.45167417 -174.49609375 354.80078125 C-186.89587835 338.57463598 -198.75718353 317.1224655 -202.38623047 296.84155273 C-202.91640905 294.5693061 -202.91640905 294.5693061 -206.24609375 293.140625 C-207.6387188 292.50051142 -209.03619184 291.87087468 -210.4375 291.25 C-217.45245684 287.95223105 -223.17287894 284.15182853 -229 279 C-229.59683594 278.54496094 -230.19367188 278.08992188 -230.80859375 277.62109375 C-247.41548352 264.77280721 -258.13991483 241.63101225 -260.7890625 221.19042969 C-263.44212854 193.64030414 -256.76866961 169.04997493 -239.625 147.25 C-222.85354621 127.49184896 -200.50268891 116.90585361 -175 114 C-175.48597656 113.41089844 -175.97195312 112.82179688 -176.47265625 112.21484375 C-178.68923631 109.00051922 -178.46932174 106.82161988 -178 103 C-175.9591596 99.24485366 -174.71604102 98.22542032 -170.625 96.9375 C-165.94032 97.01827034 -163.29124549 98.70875451 -160 102 C-159.67 91.44 -159.34 80.88 -159 70 C-161.64 70.33 -164.28 70.66 -167 71 C-167 68.36 -167 65.72 -167 63 C-168.29421875 63.02191406 -169.5884375 63.04382813 -170.921875 63.06640625 C-201.69085849 63.02437212 -229.47512933 49.70308177 -251.80078125 29.2109375 C-257.1462857 23.83694901 -261.12167381 19.0722187 -261.375 11.375 C-261.32531511 5.46249822 -260.17927101 1.28246289 -256 -3 C-250.61376415 -6.91229969 -245.44564176 -7.01817579 -239 -6 C-235.82704393 -4.49091114 -233.51873816 -2.42564311 -231 0 C-212.35858284 17.40108803 -192.10985078 25.29145011 -167 28 C-167.04640625 27.10796875 -167.0928125 26.2159375 -167.140625 25.296875 C-167.17671875 24.12640625 -167.2128125 22.9559375 -167.25 21.75 C-167.29640625 20.58984375 -167.3428125 19.4296875 -167.390625 18.234375 C-167 15 -167 15 -165.19921875 12.63671875 C-162.11531512 10.34159331 -159.81573054 10.06694264 -156 10 C-153.25 11.4375 -153.25 11.4375 -151 13 C-147.98358097 13.33970402 -147.98358097 13.33970402 -146.3125 11.4375 C-143.249532 9.53349287 -141.37837252 9.89612844 -137.90625 10.47265625 C-135.46057445 11.14922633 -133.82375764 12.25223226 -132 14 C-131.2980249 13.35023193 -130.5960498 12.70046387 -129.87280273 12.03100586 C-126.56634066 9.69341276 -125.02782984 9.49668736 -121.03515625 9.50390625 C-119.34036133 9.50293945 -119.34036133 9.50293945 -117.61132812 9.50195312 C-115.8546582 9.53192383 -115.8546582 9.53192383 -114.0625 9.5625 C-112.31163086 9.55186523 -112.31163086 9.55186523 -110.52539062 9.54101562 C-99.81886933 9.62032319 -99.81886933 9.62032319 -95 13 C-89.9720408 18.57152235 -90 19.83541257 -90 28 C-78.78 28 -67.56 28 -56 28 C-56 25.03 -56 22.06 -56 19 C-53.98610628 10.89439051 -48.13581364 2.8630182 -41.3125 -1.875 C-27.85015303 -9.33106909 -12.65181245 -8.63364025 0 0 Z M-90 63 C-90.34963649 75.35025998 -90.34963649 75.35025998 -90.5859375 87.70117188 C-90.65740758 92.74757194 -90.74148918 97.79133511 -90.90527344 102.83569336 C-91.03665004 106.9078954 -91.10760311 110.97726882 -91.13852692 115.05142784 C-91.16053022 116.59742449 -91.2035046 118.14328333 -91.26876068 119.68805885 C-91.72189019 129.1685742 -91.72189019 129.1685742 -87.40026855 137.30184937 C-85.37783388 139.26085789 -83.25144371 141.00096497 -81.00494385 142.69535828 C-67.90690996 152.74089554 -61.90332663 168.84099753 -57 184 C-56.67 184 -56.34 184 -56 184 C-56 144.07 -56 104.14 -56 63 C-67.22 63 -78.44 63 -90 63 Z M13 63 C12.93216769 81.45490959 12.87695123 99.90971757 12.84456348 118.36472034 C12.82912274 126.93451731 12.80808688 135.50423107 12.77368164 144.07397461 C12.74369349 151.54708832 12.72440472 159.02014175 12.71773452 166.49331397 C12.71383814 170.44693608 12.70473998 174.40038578 12.68280983 178.35395241 C12.66229553 182.08283487 12.65619603 185.81147555 12.66067696 189.54040909 C12.65947103 191.54577485 12.6434077 193.55111489 12.6267395 195.55641174 C12.67983807 211.24324474 17.20437741 223.88197103 28.0234375 235.37109375 C31.97751258 238.86334116 40.41929055 246 46 246 C46 185.61 46 125.22 46 63 C35.11 63 24.22 63 13 63 Z " fill="#F2AC61" transform="translate(278,40)"/>
<path d="M0 0 C5.61 0 11.22 0 17 0 C17.09283171 22.28003149 17.16409879 44.56001595 17.20724869 66.84020233 C17.22782177 77.18666696 17.25584125 87.53300877 17.30175781 97.87939453 C17.34178715 106.9035582 17.36747094 115.92763285 17.37635398 124.95188284 C17.38154162 129.72450889 17.39362331 134.49688044 17.42292023 139.26942444 C17.45034451 143.77398558 17.45839125 148.27819067 17.45243073 152.78282738 C17.45351902 154.42416007 17.46131047 156.06550637 17.4768219 157.70676613 C17.64202336 176.11052032 14.37455302 192.9613579 1.328125 206.7421875 C-9.09223107 216.84783483 -20.06247954 221.37252493 -34.5 221.25 C-35.41136719 221.25773438 -36.32273437 221.26546875 -37.26171875 221.2734375 C-38.60169922 221.26957031 -38.60169922 221.26957031 -39.96875 221.265625 C-40.76732422 221.26336914 -41.56589844 221.26111328 -42.38867188 221.25878906 C-45 221 -45 221 -52 219 C-52 160.92 -52 102.84 -52 43 C-49.03 42.01 -46.06 41.02 -43 40 C-40.12359384 37.62499209 -40.12359384 37.62499209 -38 35 C-37.01 34.01 -36.02 33.02 -35 32 C-35 35.63 -35 39.26 -35 43 C-27.25619861 40.68841749 -22.96274739 38.61699652 -18 32 C-18 35.63 -18 39.26 -18 43 C-9.0900807 40.51488717 -9.0900807 40.51488717 -3 34 C-1.08074384 29.97167598 -0.70346403 26.61438927 -0.5859375 22.16796875 C-0.54726563 20.87568359 -0.50859375 19.58339844 -0.46875 18.25195312 C-0.43729986 16.89714005 -0.40605239 15.54232225 -0.375 14.1875 C-0.3367825 12.81312728 -0.2977286 11.43877756 -0.2578125 10.06445312 C-0.16364838 6.70985624 -0.0807397 3.35494683 0 0 Z " fill="#A56953" transform="translate(376,68)"/>
<path d="M0 0 C3.17295607 1.50908886 5.48126184 3.57435689 8 6 C26.64141716 23.40108803 46.89014922 31.29145011 72 34 C71.95359375 33.10796875 71.9071875 32.2159375 71.859375 31.296875 C71.82328125 30.12640625 71.7871875 28.9559375 71.75 27.75 C71.70359375 26.58984375 71.6571875 25.4296875 71.609375 24.234375 C72 21 72 21 73.80078125 18.63671875 C76.88468488 16.34159331 79.18426946 16.06694264 83 16 C85.75 17.4375 85.75 17.4375 88 19 C91.01641903 19.33970402 91.01641903 19.33970402 92.6875 17.4375 C95.750468 15.53349287 97.62162748 15.89612844 101.09375 16.47265625 C103.53942555 17.14922633 105.17624236 18.25223226 107 20 C107.7019751 19.35023193 108.4039502 18.70046387 109.12719727 18.03100586 C112.43365934 15.69341276 113.97217016 15.49668736 117.96484375 15.50390625 C119.65963867 15.50293945 119.65963867 15.50293945 121.38867188 15.50195312 C123.1453418 15.53192383 123.1453418 15.53192383 124.9375 15.5625 C126.68836914 15.55186523 126.68836914 15.55186523 128.47460938 15.54101562 C139.18113067 15.62032319 139.18113067 15.62032319 144 19 C149.0279592 24.57152235 149 25.83541257 149 34 C160.22 34 171.44 34 183 34 C183 45.55 183 57.1 183 69 C171.78 69 160.56 69 149 69 C149 92.43 149 115.86 149 140 C145.04 137.69 141.08 135.38 137 133 C124.75601253 126.23358587 111.86389533 122.59054964 98 121 C98.72896484 119.87271484 98.72896484 119.87271484 99.47265625 118.72265625 C101.44951055 115.19869859 101.50717461 112.98494334 101 109 C99.58333333 106.41666667 99.58333333 106.41666667 97 105 C93.67291743 104.08115592 93.67291743 104.08115592 90 105 C87.06047266 107.07465765 84.5179657 109.43625311 82 112 C81.34 111.67 80.68 111.34 80 111 C80 99.45 80 87.9 80 76 C77.36 76.33 74.72 76.66 72 77 C72 74.36 72 71.72 72 69 C70.70578125 69.02191406 69.4115625 69.04382813 68.078125 69.06640625 C37.30914151 69.02437212 9.52487067 55.70308177 -12.80078125 35.2109375 C-18.1462857 29.83694901 -22.12167381 25.0722187 -22.375 17.375 C-22.32531511 11.46249822 -21.17927101 7.28246289 -17 3 C-11.61376415 -0.91229969 -6.44564176 -1.01817579 0 0 Z " fill="#A56952" transform="translate(39,34)"/>
<path d="M0 0 C5.82064009 4.60059326 11.50591463 10.83673666 12.7890625 18.4140625 C12.90727067 20.74523764 12.96419948 23.079925 12.9765625 25.4140625 C12.99074219 26.6309375 13.00492187 27.8478125 13.01953125 29.1015625 C12.7890625 32.4140625 12.7890625 32.4140625 10.7890625 36.4140625 C18.3790625 36.4140625 25.9690625 36.4140625 33.7890625 36.4140625 C33.4178125 34.4753125 33.0465625 32.5365625 32.6640625 30.5390625 C31.27173918 21.23672847 32.31849333 14.24614383 37.87109375 6.52734375 C42.52409708 1.40051116 48.55016088 -3.11295271 55.5546875 -3.89453125 C66.97492907 -4.31702898 77.12742208 -1.56707455 88.02880859 1.63671875 C90.57960551 2.35507514 93.12819961 2.96602134 95.71484375 3.5390625 C105.53077999 5.83821345 105.53077999 5.83821345 108.4296875 9.46875 C109.48504283 12.54846874 109.67748435 15.15310116 109.7890625 18.4140625 C109.83401855 19.14141602 109.87897461 19.86876953 109.92529297 20.61816406 C110.87705976 36.78831959 107.67645447 50.39087796 101.7890625 65.4140625 C94.16020976 64.01118998 86.70694296 62.14488631 79.2265625 60.1015625 C78.08993164 59.79250977 76.95330078 59.48345703 75.78222656 59.16503906 C69.19184393 57.3649487 62.60465423 55.55279437 56.0390625 53.6640625 C55.04990845 53.38502075 55.04990845 53.38502075 54.04077148 53.1003418 C50.04557297 51.92898293 46.45945545 50.37310659 42.7890625 48.4140625 C42.38816406 48.92195313 41.98726563 49.42984375 41.57421875 49.953125 C36.67405543 55.88665609 31.36191538 61.80328656 23.42578125 62.86328125 C18.96965805 62.31284713 16.44363244 60.52153203 13.1015625 57.7265625 C12.54662109 57.29150391 11.99167969 56.85644531 11.41992188 56.40820312 C8.06474337 53.7152834 5.36413777 50.89135392 2.7890625 47.4140625 C1.79003906 48.15527344 0.79101562 48.89648438 -0.23828125 49.66015625 C-6.50220881 53.56771291 -13.66934544 54.83753582 -20.7734375 56.4765625 C-22.83993019 56.96733322 -24.90540541 57.46221958 -26.97079468 57.95761108 C-28.33715663 58.284233 -29.70420312 58.60800495 -31.07192993 58.92886353 C-34.55949399 59.75176956 -38.02412995 60.623231 -41.47607422 61.58544922 C-42.16080307 61.77554062 -42.84553192 61.96563202 -43.55101013 62.16148376 C-45.44100017 62.69184966 -47.32790791 63.23316422 -49.21459961 63.77514648 C-52.2109375 64.4140625 -52.2109375 64.4140625 -55.2109375 63.4140625 C-56.2734375 61.4453125 -56.2734375 61.4453125 -57.2109375 58.9140625 C-57.5203125 58.099375 -57.8296875 57.2846875 -58.1484375 56.4453125 C-58.4990625 55.445 -58.8496875 54.4446875 -59.2109375 53.4140625 C-59.4682666 52.81932129 -59.7255957 52.22458008 -59.99072266 51.61181641 C-62.68562638 44.84013023 -62.66817527 38.06391835 -62.60205078 30.875 C-62.5859123 28.78579978 -62.60199469 26.69851799 -62.62109375 24.609375 C-62.61911195 23.26041247 -62.61526959 21.91145111 -62.609375 20.5625 C-62.60599121 19.35770996 -62.60260742 18.15291992 -62.59912109 16.91162109 C-62.14509869 12.82085067 -61.26526781 9.98672793 -59.2109375 6.4140625 C-56.55053711 4.91674805 -56.55053711 4.91674805 -53.36328125 4.05078125 C-52.19990234 3.72142578 -51.03652344 3.39207031 -49.83789062 3.05273438 C-48.62037109 2.73884766 -47.40285156 2.42496094 -46.1484375 2.1015625 C-44.95798828 1.76833984 -43.76753906 1.43511719 -42.54101562 1.09179688 C-11.23353776 -7.53109835 -11.23353776 -7.53109835 0 0 Z " fill="#7A7A79" transform="translate(97.2109375,218.5859375)"/>
<path d="M0 0 C2.59391111 -0.01184986 5.18539959 -0.06114077 7.77880859 -0.11157227 C28.80808596 -0.31585396 48.62377395 5.55044669 63.99243164 20.37084961 C65.33752674 21.71111203 66.66616439 23.06783319 67.99365234 24.42553711 C68.64720703 25.04686523 69.30076172 25.66819336 69.97412109 26.30834961 C74.26011781 30.68261628 77.04911312 35.82261686 79.93115234 41.17553711 C80.33358154 41.9214209 80.73601074 42.66730469 81.15063477 43.43579102 C81.70521362 44.50579346 81.70521362 44.50579346 82.27099609 45.59741211 C82.60349365 46.23775391 82.93599121 46.8780957 83.27856445 47.5378418 C83.99365234 49.42553711 83.99365234 49.42553711 83.99365234 53.42553711 C76.55210703 52.865086 69.86410644 51.10902611 62.74365234 48.92553711 C60.63483137 48.28828417 58.52547447 47.65280139 56.41552734 47.01928711 C55.49352539 46.73762695 54.57152344 46.4559668 53.62158203 46.16577148 C45.36635896 43.84044295 34.42942492 42.26890611 26.43115234 46.11303711 C25.2603647 46.84541293 24.11177533 47.61503169 22.99365234 48.42553711 C21.94177734 49.12678711 20.88990234 49.82803711 19.80615234 50.55053711 C14.68790304 55.12339919 11.95380587 61.71259418 11.11865234 68.42553711 C10.86884527 74.27053645 10.86884527 74.27053645 11.99365234 83.42553711 C4.40365234 83.42553711 -3.18634766 83.42553711 -11.00634766 83.42553711 C-10.51134766 81.44553711 -10.51134766 81.44553711 -10.00634766 79.42553711 C-9.34324156 70.7942873 -9.53418474 63.03868401 -14.00634766 55.42553711 C-15.00396388 54.423159 -16.00347823 53.42265943 -17.00634766 52.42553711 C-17.00634766 51.76553711 -17.00634766 51.10553711 -17.00634766 50.42553711 C-17.59802734 50.13936523 -18.18970703 49.85319336 -18.79931641 49.55834961 C-21.00634766 48.42553711 -21.00634766 48.42553711 -24.31884766 46.30053711 C-38.37375513 39.47901608 -58.24847548 47.02424269 -72.06884766 51.73803711 C-73.385625 52.22723633 -73.385625 52.22723633 -74.72900391 52.72631836 C-77.00634766 53.42553711 -77.00634766 53.42553711 -81.00634766 53.42553711 C-78.6707037 37.66733165 -66.02848389 23.83416547 -54.00634766 14.42553711 C-37.17603065 2.91879687 -20.00189618 0.04300277 0 0 Z " fill="#FEDDA6" transform="translate(119.00634765625,171.574462890625)"/>
<path d="M0 0 C0.52980469 0.71542969 1.05960938 1.43085938 1.60546875 2.16796875 C4.26907297 5.31823475 7.07854153 7.7771667 10.3125 10.3125 C10.85583984 10.76689453 11.39917969 11.22128906 11.95898438 11.68945312 C14.8567579 13.96456457 16.90453139 14.98609274 20.56640625 15.51953125 C27.65963142 14.44626737 33.65891672 8.89301371 38.1875 3.5 C38.785625 2.675 39.38375 1.85 40 1 C40.72123047 1.32105713 41.44246094 1.64211426 42.18554688 1.97290039 C49.51114703 5.14217766 56.77083374 7.48200566 64.5 9.4375 C66.76884778 10.02888174 69.0370711 10.62266404 71.3046875 11.21875 C72.98256348 11.65960938 72.98256348 11.65960938 74.69433594 12.109375 C82.51750454 14.21712382 90.25790659 16.61445655 98 19 C88.91656416 36.45563526 73.88669885 49.03331145 55.15893555 55.34863281 C44.35700013 58.72522051 34.29147801 59.75988709 23.00390625 59.59692383 C20.36871058 59.56241764 17.73685691 59.57640499 15.1015625 59.59570312 C1.12737476 59.58583665 -12.35878013 57.88863345 -24.75 50.9375 C-25.45116943 50.55464844 -26.15233887 50.17179687 -26.87475586 49.77734375 C-38.10313331 43.37358958 -50.26411062 32.69168506 -56 21 C-55.57641602 18.84423828 -55.57641602 18.84423828 -55 17 C-53.66376587 16.66790527 -53.66376587 16.66790527 -52.30053711 16.32910156 C-48.91747293 15.48765875 -45.5346988 14.64506716 -42.15209961 13.80175781 C-40.70266565 13.44063768 -39.25312542 13.07994376 -37.8034668 12.71972656 C-33.56931033 11.6674336 -29.33738446 10.6068315 -25.10836792 9.53405762 C-23.6965182 9.17643071 -22.28417819 8.82073411 -20.87136841 8.46691895 C-18.82901256 7.95384848 -16.78930162 7.43131171 -14.75 6.90625 C-12.97689453 6.45475586 -12.97689453 6.45475586 -11.16796875 5.99414062 C-6.83845083 4.63549413 -3.64283308 2.67636716 0 0 Z " fill="#FEDDA6" transform="translate(100,265)"/>
<path d="M0 0 C0.33 0 0.66 0 1 0 C1.14695312 1.08796875 1.29390625 2.1759375 1.4453125 3.296875 C3.53888356 17.51206021 7.81141972 29.29901031 19 39 C32.738041 48.93272185 45.18482349 51.2983282 62 50 C74.42434903 47.80204842 85.07352409 39.85331045 92.5859375 29.8984375 C97.42795312 22.54938841 99.64723941 14.39081873 102 6 C102.33 6 102.66 6 103 6 C103.07661597 13.18580222 103.12883556 20.3714975 103.16479492 27.55761719 C103.17979978 29.9977614 103.20021015 32.43787902 103.22631836 34.87792969 C103.26306851 38.40306192 103.27981002 41.92783488 103.29296875 45.453125 C103.30845261 46.5286261 103.32393646 47.6041272 103.33988953 48.71221924 C103.34341682 64.90420119 98.18728125 77.75551919 86.9140625 89.29296875 C82.9454063 92.97966948 78.82291525 95.58427431 74 98 C72.96875 98.5775 71.9375 99.155 70.875 99.75 C58.97781376 104.92268967 44.07245298 104.60529541 32 100 C17.90195506 93.50985144 8.81417166 83.50842313 2.88238525 69.32830811 C-0.05498206 61.32032032 -0.53060076 54.18155915 -0.390625 45.703125 C-0.38496521 44.38834167 -0.37930542 43.07355835 -0.37347412 41.71893311 C-0.35838673 38.26639942 -0.31925795 34.81456636 -0.2746582 31.36230469 C-0.23333432 27.82236197 -0.21538491 24.2823032 -0.1953125 20.7421875 C-0.15274147 13.82784181 -0.084703 6.91395477 0 0 Z " fill="#FEDDA6" transform="translate(290,238)"/>
<path d="M0 0 C2.55079691 0.71835639 5.09939102 1.32930259 7.68603516 1.90234375 C17.50197139 4.2014947 17.50197139 4.2014947 20.40087891 7.83203125 C21.45623424 10.91174999 21.64867576 13.51638241 21.76025391 16.77734375 C21.80520996 17.50469727 21.85016602 18.23205078 21.89648438 18.98144531 C22.84825117 35.15160084 19.64764588 48.75415921 13.76025391 63.77734375 C6.13145138 62.37448047 -1.32203501 60.50867473 -8.80224609 58.46484375 C-10.50719238 58.000177 -10.50719238 58.000177 -12.24658203 57.52612305 C-14.52180066 56.90354518 -16.79639418 56.2786777 -19.0703125 55.65136719 C-21.04553697 55.10666655 -23.02163067 54.56509619 -24.99902344 54.02832031 C-27.33263174 53.39357885 -29.6617397 52.74478498 -31.98974609 52.08984375 C-32.64918213 51.91219482 -33.30861816 51.7345459 -33.98803711 51.55151367 C-38.31804881 50.30471114 -41.72737228 48.60704551 -45.23974609 45.77734375 C-46.53001628 43.0786107 -46.74052841 40.77264986 -47.23974609 37.77734375 C-49.54974609 37.11734375 -51.85974609 36.45734375 -54.23974609 35.77734375 C-56.21690574 25.22235301 -57.37536168 16.59994506 -51.73974609 7.08984375 C-38.51338755 -11.2964275 -18.42478813 -5.41483531 0 0 Z " fill="#7A7A79" transform="translate(185.23974609375,220.22265625)"/>
<path d="M0 0 C3.17295607 1.50908886 5.48126184 3.57435689 8 6 C26.97581635 23.71323757 46.19536537 30.77442067 72 34 C72 45.55 72 57.1 72 69 C39.39073308 69 11.14398205 57.18922265 -12.80078125 35.2109375 C-18.1462857 29.83694901 -22.12167381 25.0722187 -22.375 17.375 C-22.32531511 11.46249822 -21.17927101 7.28246289 -17 3 C-11.61376415 -0.91229969 -6.44564176 -1.01817579 0 0 Z " fill="#44911B" transform="translate(39,34)"/>
<path d="M0 0 C2.36499852 0.7698825 4.04543785 1.88176075 5.8359375 3.59765625 C6.5371875 2.93765625 7.2384375 2.27765625 7.9609375 1.59765625 C11.38288878 -0.7828316 12.75332779 -1.06889227 16.8359375 -0.40234375 C20.2109375 1.59765625 20.2109375 1.59765625 22.8359375 3.59765625 C23.5165625 2.91703125 24.1971875 2.23640625 24.8984375 1.53515625 C27.8359375 -0.40234375 27.8359375 -0.40234375 31.3359375 -0.46484375 C35.61574952 0.8343849 37.10585846 2.0598989 39.8359375 5.59765625 C40.54925871 8.66228678 40.51398634 11.6379612 40.46484375 14.7734375 C40.46725571 15.65742722 40.46966766 16.54141693 40.47215271 17.45219421 C40.47117525 19.31900524 40.45780571 21.18584561 40.43286133 23.05249023 C40.39867032 25.89082927 40.41217744 28.72603149 40.43164062 31.56445312 C40.42473801 33.3841277 40.41506188 35.20379428 40.40234375 37.0234375 C40.40730362 37.8632869 40.41226349 38.70313629 40.41737366 39.56843567 C40.27978732 46.5545405 38.468983 52.03212474 33.3984375 56.97265625 C29.32096513 59.55837044 26.70914972 60.59765625 21.8359375 60.59765625 C21.3409375 56.14265625 21.3409375 56.14265625 20.8359375 51.59765625 C20.1346875 52.52578125 19.4334375 53.45390625 18.7109375 54.41015625 C16.11747891 57.50911948 13.66738312 59.16086414 9.8359375 60.59765625 C8.1859375 60.59765625 6.5359375 60.59765625 4.8359375 60.59765625 C4.3409375 55.64765625 4.3409375 55.64765625 3.8359375 50.59765625 C3.2790625 51.52578125 2.7221875 52.45390625 2.1484375 53.41015625 C-0.2033665 56.65183203 -1.54854393 58.00010153 -5.1640625 59.59765625 C-7.49272271 59.96220689 -9.82605109 60.29889512 -12.1640625 60.59765625 C-12.31618596 52.71420005 -12.42126797 44.83112217 -12.49365234 36.9465332 C-12.52043973 34.26414181 -12.56218402 31.58260252 -12.61669922 28.90063477 C-12.68947822 25.04548809 -12.72351432 21.19164573 -12.75 17.3359375 C-12.79645157 15.53724968 -12.79645157 15.53724968 -12.84384155 13.70222473 C-12.84712198 5.58932781 -12.84712198 5.58932781 -10.86557007 2.7124939 C-7.08267342 -0.56619922 -4.64166281 -0.91588366 0 0 Z " fill="#FDDCA5" transform="translate(336.1640625,50.40234375)"/>
<path d="M0 0 C2.5 1.5625 2.5 1.5625 4 3 C4.66 2.319375 5.32 1.63875 6 0.9375 C9.57611063 -1.37207145 11.08476874 -1.29640775 15.12890625 -0.5625 C17.53435106 0.16063998 19.19325678 1.26853775 21 3 C21.680625 2.319375 22.36125 1.63875 23.0625 0.9375 C26 -1 26 -1 29.5625 -1 C33.47420104 0.13794939 34.64983344 0.70667449 37 4 C37.60054668 7.25432574 37.56031254 10.46791478 37.53125 13.76953125 C37.5350769 14.72389572 37.53890381 15.67826019 37.54284668 16.6615448 C37.54556676 18.67972875 37.53819889 20.69794789 37.52148438 22.71606445 C37.50014684 25.79133714 37.52124629 28.86425477 37.546875 31.93945312 C37.54423036 33.90365096 37.53910256 35.86784733 37.53125 37.83203125 C37.53934692 38.74580032 37.54744385 39.6595694 37.55578613 40.60102844 C37.4689124 46.577934 36.48219624 50.10326073 33 55 C28.80370384 58.54353898 25.44250504 59.5645996 20 60 C19.67 56.7 19.34 53.4 19 50 C17.948125 51.27875 16.89625 52.5575 15.8125 53.875 C13.1039139 56.96584624 11.14164959 59.1045082 7 60 C5.68 60 4.36 60 3 60 C2.505 55.05 2.505 55.05 2 50 C1.2265625 51.36125 1.2265625 51.36125 0.4375 52.75 C-2.11301382 56.56672635 -4.83750437 58.10131778 -9 60 C-11.72265625 60.1015625 -11.72265625 60.1015625 -14 60 C-14.10132712 52.09809304 -14.17143514 44.19635328 -14.21972656 36.29394531 C-14.237599 33.60495534 -14.26544475 30.91634174 -14.30175781 28.22753906 C-14.35021615 24.36512439 -14.37295626 20.50328792 -14.390625 16.640625 C-14.41127014 15.4363385 -14.43191528 14.232052 -14.45318604 12.99127197 C-14.45348816 11.87041199 -14.45379028 10.749552 -14.45410156 9.59472656 C-14.46298401 8.60877502 -14.47186646 7.62282349 -14.48101807 6.60699463 C-13.86522455 3.2695516 -12.59076264 2.11651981 -10 0 C-6.76038186 -1.61980907 -3.41534955 -0.78971521 0 0 Z " fill="#FEDDA6" transform="translate(125,51)"/>
<path d="M0 0 C3.37483413 -0.08767555 6.74937215 -0.14061628 10.125 -0.1875 C11.55199219 -0.22520508 11.55199219 -0.22520508 13.0078125 -0.26367188 C18.44195799 -0.32027756 22.33222539 -0.12171297 27 3 C32.0279592 8.57152235 32 9.83541257 32 18 C43.22 18 54.44 18 66 18 C66 29.55 66 41.1 66 53 C45.60968004 53.0832258 25.3668055 52.91000769 5 52 C5.01665459 51.13342522 5.01665459 51.13342522 5.03364563 50.24934387 C5.14434811 44.23108394 5.21971205 38.21311364 5.2746582 32.1940918 C5.29978723 29.94852956 5.33389615 27.703049 5.37719727 25.45776367 C5.43791776 22.22814782 5.46622631 18.99961416 5.48828125 15.76953125 C5.51408768 14.76727005 5.5398941 13.76500885 5.56648254 12.7323761 C5.64821524 6.69544137 5.64821524 6.69544137 2.46948242 1.8269043 C1.65455322 1.22402588 0.83962402 0.62114746 0 0 Z " fill="#44901B" transform="translate(156,50)"/>
<path d="M0 0 C4.00235311 1.70390033 6.34125859 4.12876136 8.9375 7.5625 C10.93612628 14.02864384 11.27474687 20.34722816 8.3125 26.51171875 C6.13786217 30.01821985 3.50313404 32.99408166 0.5625 35.875 C0.04679443 36.38530762 -0.46891113 36.89561523 -1.00024414 37.42138672 C-7.71346935 43.87939841 -15.2641553 49.64182905 -24 53 C-24.01401855 51.89712646 -24.01401855 51.89712646 -24.02832031 50.77197266 C-24.08253278 47.38900851 -24.16607971 44.0073525 -24.25 40.625 C-24.26417969 39.46871094 -24.27835937 38.31242187 -24.29296875 37.12109375 C-24.48285817 30.39900839 -25.24701907 25.15586427 -28.24902344 19.09912109 C-29.1507789 16.57854455 -28.98504038 15.46227841 -28 13 C-20.11781337 4.42321455 -12.11608558 -2.04904388 0 0 Z " fill="#44911B" transform="translate(485,34)"/>
<path d="M0 0 C10.89 0 21.78 0 33 0 C33 11.55 33 23.1 33 35 C22.11 35 11.22 35 0 35 C0 23.45 0 11.9 0 0 Z " fill="#44911B" transform="translate(291,68)"/>
<path d="M0 0 C0.67293091 -0.0038269 1.34586182 -0.00765381 2.03918457 -0.01159668 C3.4579417 -0.0143113 4.87674927 -0.00698134 6.29541016 0.00976562 C8.46240203 0.03118725 10.62607951 0.00995462 12.79296875 -0.015625 C14.17448646 -0.01298164 15.5560021 -0.00785647 16.9375 0 C18.18982422 0.00451172 19.44214844 0.00902344 20.73242188 0.01367188 C24.52697475 0.62052553 25.70981657 1.47439855 27.96875 4.53125 C28.73374164 8.1475741 28.69408305 10.36666247 26.7109375 13.55078125 C22.00711665 19.2719401 16.15094673 24.96713974 8.609375 25.984375 C4.12653028 25.42642437 1.5788049 23.5957901 -1.78125 20.78125 C-2.34457031 20.3378125 -2.90789062 19.894375 -3.48828125 19.4375 C-10.77509547 13.5804862 -10.77509547 13.5804862 -11.46875 8.03125 C-11.03125 4.53125 -11.03125 4.53125 -9.44335938 2.34570312 C-6.18738594 -0.10352709 -4.04926739 0.0145882 0 0 Z " fill="#2A2929" transform="translate(112.03125,255.46875)"/>
<path d="M0 0 C5.28 0 10.56 0 16 0 C16 11.22 16 22.44 16 34 C10.06 34 4.12 34 -2 34 C-1.67 32.35 -1.34 30.7 -1 29 C-0.85536047 26.72480822 -0.75386208 24.44667026 -0.68359375 22.16796875 C-0.64169922 20.87568359 -0.59980469 19.58339844 -0.55664062 18.25195312 C-0.51683648 16.89713808 -0.47712409 15.54232033 -0.4375 14.1875 C-0.39426277 12.81313895 -0.35064688 11.43878976 -0.30664062 10.06445312 C-0.20070266 6.70975096 -0.09986052 3.35488857 0 0 Z " fill="#44901B" transform="translate(376,68)"/>
<path d="M0 0 C3.20384041 1.29516953 4.5905657 2.51997358 6.8125 5.125 C8.48208128 9.16714416 8.68440348 12.68825807 8 17 C5.80613412 21.38773175 3.55479418 24.09334197 -1 26 C-6.01342749 26.53715295 -9.01257943 26.12527558 -13 23 C-16.03063475 19.54844376 -17.86936155 17.35863989 -18.3125 12.75 C-17.88734926 7.64819106 -15.94211726 4.74749143 -12.16796875 1.3515625 C-8.3604418 -1.02213899 -4.3366839 -0.5139252 0 0 Z " fill="#292929" transform="translate(86,230)"/>
<path d="M0 0 C4.12611421 1.74213711 6.73295974 4.13763511 9 8 C9.85732053 12.68495359 9.44240303 16.08116294 7.375 20.375 C3.9959482 24.10974147 1.03890753 25.69633292 -3.9375 26.4375 C-9.01259687 25.71248616 -12.59898313 23.62698733 -15.9375 19.75 C-17.348205 16.09876353 -17.68263302 12.82574547 -17 9 C-12.84409724 1.13346977 -8.67792445 -1.13528402 0 0 Z " fill="#292929" transform="translate(162,230)"/>
<path d="M0 0 C3.37483413 -0.08767555 6.74937215 -0.14061628 10.125 -0.1875 C11.55199219 -0.22520508 11.55199219 -0.22520508 13.0078125 -0.26367188 C18.44195799 -0.32027756 22.33222539 -0.12171297 27 3 C32.0279592 8.57152235 32 9.83541257 32 18 C23.75 18 15.5 18 7 18 C7 27.24 7 36.48 7 46 C6.67 46 6.34 46 6 46 C5.99589111 44.78417236 5.99178223 43.56834473 5.98754883 42.31567383 C5.9657433 37.7958767 5.91143887 33.27694837 5.84741211 28.75756836 C5.82424449 26.80322611 5.80983929 24.84875923 5.80444336 22.89428711 C5.79514468 20.08107957 5.75413525 17.26982888 5.70703125 14.45703125 C5.7109639 13.58601273 5.71489655 12.7149942 5.71894836 11.81758118 C5.61872655 7.6314128 5.49254439 4.96709114 2.45581055 1.90893555 C1.64539307 1.27898682 0.83497559 0.64903809 0 0 Z " fill="#A66F55" transform="translate(156,50)"/>
<path d="M0 0 C14.20049517 -0.56886257 14.20049517 -0.56886257 19 3 C22.81654802 6.71339807 23.70662648 9.7192766 24 15 C23.67 15.99 23.34 16.98 23 18 C17.72 18 12.44 18 7 18 C6.8046875 13.5078125 6.8046875 13.5078125 6.609375 9.015625 C5.88451654 5.42850492 4.76627342 4.30869436 2 2 C1.34 1.34 0.68 0.68 0 0 Z " fill="#A56953" transform="translate(369,50)"/>
<path d="M0 0 C0.33 0 0.66 0 1 0 C1 17.16 1 34.32 1 52 C0.67 52 0.34 52 0 52 C-0.03758423 50.11510864 -0.03758423 50.11510864 -0.07592773 48.19213867 C-0.17002295 43.53480643 -0.27023859 38.87762259 -0.37231445 34.22045898 C-0.41565529 32.20389271 -0.45733098 30.18728993 -0.49731445 28.1706543 C-0.55503747 25.27381383 -0.61872622 22.37715694 -0.68359375 19.48046875 C-0.70030624 18.57725388 -0.71701874 17.674039 -0.73423767 16.74345398 C-0.75418289 15.90280899 -0.77412811 15.062164 -0.79467773 14.19604492 C-0.81022202 13.45658127 -0.8257663 12.71711761 -0.84178162 11.95524597 C-0.93912225 9.7848329 -0.93912225 9.7848329 -2 7 C-1.40206327 4.64811553 -0.74118205 2.31074405 0 0 Z " fill="#F9CF95" transform="translate(392,244)"/>
</svg>
